<?xml version="1.0" standalone="no"?>
<!DOCTYPE svg PUBLIC "-//W3C//DTD SVG 20010904//EN"
 "http://www.w3.org/TR/2001/REC-SVG-20010904/DTD/svg10.dtd">
<svg version="1.0" xmlns="http://www.w3.org/2000/svg"
 width="2440.000000pt" height="2440.000000pt" viewBox="0 0 2440.000000 2440.000000"
 preserveAspectRatio="xMidYMid meet">
<metadata>
Created by potrace 1.14, written by Peter Selinger 2001-2017
</metadata>
<g transform="translate(0.000000,2440.000000) scale(0.100000,-0.100000)"
fill="#000000" stroke="none">
<path d="M3659 15959 c-23 -23 -110 -200 -161 -329 -17 -41 -70 -192 -118
-335 -89 -263 -117 -337 -487 -1285 -336 -860 -447 -1146 -598 -1535 -352
-912 -423 -1090 -914 -2302 -187 -464 -361 -879 -386 -924 -65 -117 -127 -202
-224 -302 -188 -195 -368 -294 -602 -328 -79 -11 -159 -47 -159 -70 0 -18 43
-90 62 -103 11 -8 35 -12 56 -10 84 10 718 35 1152 45 432 11 468 13 505 32
22 11 43 25 47 31 12 18 9 83 -4 94 -7 5 -62 28 -122 51 -60 22 -120 50 -132
62 -45 43 -60 149 -34 244 30 112 178 505 345 920 218 543 379 943 389 970 6
16 11 9 22 -34 26 -99 90 -152 201 -167 45 -6 57 -2 149 44 241 121 604 278
902 391 353 133 1034 344 1052 325 4 -5 18 -40 30 -79 13 -38 77 -203 142
-365 420 -1041 766 -1925 787 -2012 16 -69 14 -107 -13 -164 -29 -61 -83 -109
-151 -129 -60 -19 -135 -56 -135 -68 0 -22 51 -104 72 -114 23 -12 383 -26
963 -38 154 -3 465 -13 692 -21 l412 -16 41 25 41 24 -51 61 c-41 49 -58 62
-88 67 -187 29 -264 53 -379 115 -236 127 -427 347 -554 636 -125 284 -380
895 -586 1404 -91 224 -343 860 -343 865 0 1 53 5 118 8 350 18 441 26 520 46
92 24 192 65 192 79 0 16 -36 42 -57 42 -16 0 -22 8 -27 39 -4 28 -14 46 -34
59 -56 39 -213 91 -324 107 -56 8 -60 22 -18 53 17 13 30 29 30 36 0 19 -72
46 -121 46 -22 0 -51 8 -65 17 -14 9 -44 20 -67 24 -23 4 -70 19 -104 33 -75
32 -145 46 -227 46 l-61 0 -49 133 c-298 811 -851 2268 -1234 3252 -107 274
-110 281 -148 302 -52 30 -116 31 -145 2z m149 -2424 c201 -495 502 -1233 518
-1270 3 -6 -40 -18 -103 -28 -60 -10 -180 -36 -268 -57 -626 -151 -1124 -402
-1407 -709 -32 -34 -58 -60 -58 -58 0 2 61 154 136 338 206 507 334 832 419
1064 320 875 503 1346 515 1324 5 -8 116 -280 248 -604z"/>
<path d="M10900 15954 c-626 -37 -1301 -195 -1792 -419 -393 -180 -741 -418
-1029 -705 -371 -371 -612 -761 -778 -1260 -152 -457 -208 -855 -198 -1415 9
-535 71 -906 225 -1356 223 -650 602 -1174 1137 -1570 319 -236 706 -428 1095
-544 465 -138 927 -215 1410 -234 258 -11 826 2 1065 24 625 57 1135 226 1595
529 163 108 275 198 296 238 18 36 19 -10 -7 668 l-11 295 -35 43 c-35 42 -36
43 -91 40 -54 -3 -58 -5 -90 -48 -117 -158 -224 -283 -347 -405 -483 -483
-988 -724 -1756 -837 -203 -29 -654 -32 -844 -5 -667 95 -1238 358 -1670 768
-95 91 -296 312 -387 426 -380 477 -597 1053 -649 1723 -13 167 -7 516 11 680
70 637 295 1204 670 1690 94 122 368 396 490 490 443 341 951 548 1545 627
184 24 697 24 877 0 589 -79 1090 -285 1498 -615 129 -105 298 -275 403 -407
73 -91 96 -113 134 -128 l45 -18 44 26 c33 20 44 33 49 58 10 60 35 471 41
683 8 258 12 248 -138 351 -507 346 -1063 535 -1743 593 -120 11 -943 21
-1065 14z"/>
<path d="M22900 15893 c-140 -1 -619 -9 -1065 -17 -445 -9 -1120 -20 -1500
-26 -379 -6 -969 -15 -1310 -21 -1825 -29 -2903 -21 -3451 27 l-71 6 -35 -37
-35 -37 -12 -167 c-6 -91 -16 -242 -21 -336 -6 -93 -17 -252 -26 -353 -19
-209 -19 -207 64 -243 l44 -19 45 27 c52 30 57 40 119 233 70 221 74 231 125
281 80 78 98 83 257 69 260 -21 566 -29 789 -19 253 11 1026 30 1030 25 2 -2
11 -552 19 -1222 27 -2101 21 -4054 -16 -4789 -12 -248 -54 -357 -190 -495
-113 -115 -241 -178 -385 -188 -44 -3 -95 -11 -112 -19 -31 -12 -33 -16 -33
-62 0 -46 3 -51 36 -70 35 -21 36 -21 1133 -21 l1098 0 26 24 c23 21 73 105
65 110 -41 29 -87 46 -122 46 -76 0 -160 21 -242 60 -161 78 -291 260 -330
465 -16 83 -17 237 -18 1985 -1 1042 3 2407 8 3033 l8 1137 157 0 c86 0 280 7
431 16 162 9 564 17 976 21 l702 6 6 -464 c34 -2543 33 -4346 -4 -5439 -10
-306 -19 -355 -87 -480 -50 -90 -177 -214 -270 -263 -76 -40 -177 -67 -252
-67 -57 0 -111 -19 -111 -40 0 -8 -3 -31 -6 -50 -5 -33 -3 -37 35 -58 l41 -22
1103 6 c771 5 1109 11 1119 18 15 11 58 88 58 104 0 19 -79 52 -126 52 -69 0
-167 25 -240 61 -128 63 -237 193 -296 351 -31 83 -31 84 -39 363 -9 304 -13
4070 -4 4084 2 5 5 425 5 934 0 510 4 928 8 931 21 13 850 24 1132 16 407 -12
588 -41 756 -121 98 -46 220 -135 290 -211 67 -72 95 -79 166 -41 53 28 53 28
56 80 l3 53 -94 112 c-93 112 -289 360 -438 555 l-77 100 -62 6 c-35 4 -178 6
-319 5 -141 -2 -371 -4 -511 -5z"/>
</g>
</svg>
